<?xml version="1.0" encoding="UTF-8"?>
<svg id="Camada_1" xmlns="http://www.w3.org/2000/svg" version="1.1" viewBox="0 0 3229.49 550.48">
  <!-- Generator: Adobe Illustrator 29.5.1, SVG Export Plug-In . SVG Version: 2.1.0 Build 141)  -->
  <defs>
    <style>
      .st0 {
        fill: #fff;
      }
    </style>
  </defs>
  <path class="st0" d="M299.69,81.53c-33.03-30.17-83.2-45.47-149.11-45.47H17.95v373.5h132.64c59.91,0,108.56-17.53,144.6-52.09,36.05-34.58,54.33-81.45,54.33-139.32s-16.76-106.42-49.81-136.62ZM103.8,107.67h39.8c36.46,0,65.17,10,85.31,29.72,20.14,19.72,30.35,47.24,30.35,81.8,0,36.47-10.31,65.69-30.63,86.87-20.31,21.16-48.75,31.89-84.51,31.89h-40.32V107.67Z"/>
  <path class="st0" d="M589.31,164.28c-19.38-18.94-47.82-28.54-84.53-28.54-28.54,0-53.64,6.02-74.6,17.88-20.95,11.86-36.42,25.62-45.96,40.9l-.6.96,56.5,33.74.59-.87c7.47-11.03,15.89-19.46,25.03-25.05,9.1-5.56,19.8-8.38,31.79-8.38s22.03,3.23,29.99,9.59c7.88,6.31,11.88,15.87,11.88,28.39v7.03l-69.43,7.4c-30.67,3.29-54.24,13.12-70.06,29.19-15.85,16.11-23.88,36.36-23.88,60.2s8.41,44.15,24.99,58.2c16.52,14,36.37,21.11,58.97,21.11,16.48,0,31.57-3.08,44.87-9.16,12.88-5.89,24.32-14.76,34.03-26.36v29.05h79.64v-159.57c0-37.93-9.83-66.77-29.2-85.72ZM539.4,291.87v8.87c0,15.85-5.08,29.14-15.09,39.49-10.01,10.34-23.11,15.59-38.95,15.59-9.17,0-16.85-2.65-22.83-7.88-5.93-5.19-8.94-11.84-8.94-19.75,0-8.97,2.72-16.15,8.08-21.34,5.4-5.23,14.19-8.57,26.13-9.92l51.6-5.06Z"/>
  <path class="st0" d="M910.84,164.11c-15.51-18.82-38.63-28.37-68.69-28.37-15.63,0-31.38,3.74-46.82,11.11-14.89,7.11-26.8,16.58-35.44,28.15v-32.79h-84.04v267.35h84.04v-152.32c0-16.04,4.61-29.47,13.71-39.92,9.06-10.4,20.71-15.67,34.63-15.67s24.47,4.94,31.46,14.68c7.08,9.86,10.67,23.27,10.67,39.87v153.35h83.78v-165.78c0-34.11-7.84-60.92-23.3-79.68Z"/>
  <path class="st0" d="M1198.17,36.8l-.26-.74h-100.73l-133.88,373.5h89.63l25.11-74.31h134.6l25.63,74.31h90.39l-130.49-372.76ZM1191.99,264.68h-94.09l39.94-128.53c1.53-4.75,2.93-9.29,4.15-13.49,1.14-3.92,2.21-7.91,3.17-11.89h.32c1.14,4.81,2.29,9.12,3.44,12.81,1.19,3.84,2.5,8.15,3.88,12.81l39.18,128.28Z"/>
  <path class="st0" d="M1551.2,143.84c-5.75-2.26-11.62-3.89-17.45-4.85-5.83-.95-12.03-1.44-18.43-1.44-16.56,0-30.98,4.43-42.86,13.16-11.19,8.23-20.08,20.48-26.45,36.44v-44.95h-84.04v267.35h84.04v-127.72c0-22.08,5.06-39.75,15.04-52.52,9.91-12.69,22.95-19.12,38.74-19.12,5.24,0,10.67.47,16.12,1.41,5.45.94,11.06,2.36,16.67,4.23l1.13.38,18.4-72.01-.91-.36Z"/>
  <path class="st0" d="M1776.18,164.28c-19.38-18.94-47.82-28.54-84.53-28.54-28.54,0-53.64,6.02-74.6,17.88-20.95,11.86-36.42,25.62-45.96,40.9l-.6.96,56.5,33.74.59-.87c7.47-11.03,15.89-19.46,25.03-25.05,9.1-5.56,19.8-8.38,31.79-8.38s22.03,3.23,29.99,9.59c7.88,6.31,11.88,15.87,11.88,28.39v7.03l-69.43,7.4c-30.67,3.29-54.24,13.12-70.06,29.19-15.85,16.11-23.88,36.36-23.88,60.2s8.41,44.15,24.99,58.2c16.52,14,36.37,21.11,58.97,21.11,16.48,0,31.57-3.08,44.87-9.16,12.88-5.89,24.32-14.76,34.03-26.36v29.05h79.64v-159.57c0-37.93-9.83-66.77-29.2-85.72ZM1726.27,291.87v8.87c0,15.85-5.08,29.14-15.09,39.49-10.01,10.34-23.11,15.59-38.95,15.59-9.17,0-16.85-2.65-22.83-7.88-5.93-5.19-8.94-11.84-8.94-19.75,0-8.97,2.72-16.15,8.08-21.34,5.4-5.23,14.19-8.57,26.13-9.92l51.6-5.06Z"/>
  <path class="st0" d="M2032.82,141.95v152.32c0,16.05-4.61,29.48-13.71,39.92-9.05,10.4-20.71,15.67-34.63,15.67s-24.47-4.94-31.46-14.68c-7.08-9.86-10.67-23.27-10.67-39.87v-153.35h-83.78v165.78c0,34.12,8.06,60.93,23.95,79.69,15.94,18.82,39.7,28.35,70.62,28.35,15.11,0,30.39-3.74,45.41-11.12,14.45-7.1,25.97-16.54,34.26-28.09v32.73h84.04V141.95h-84.04Z"/>
  <g>
    <path class="st0" d="M2217.24,109.74c14.55,0,26.53-4.37,35.59-12.99,9.08-8.64,13.68-19.97,13.68-33.69s-4.6-25.05-13.68-33.69c-9.07-8.62-21.04-12.99-35.59-12.99s-26.31,4.37-35.46,12.99c-9.16,8.64-13.81,19.97-13.81,33.69s4.64,24.4,13.8,33.29c9.14,8.88,21.08,13.39,35.47,13.39Z"/>
    <path class="st0" d="M2175.22,436.16c0,11.21-2.42,19.45-7.2,24.48-4.77,5.01-11.64,7.55-20.43,7.55-5.87,0-11.44-1.02-16.55-3.03-5.16-2.03-10.35-4.86-15.43-8.42l-.93-.65-36.97,55.72.92.62c11.1,7.45,23.32,12.99,36.32,16.46,12.98,3.46,26.41,5.22,39.9,5.22,31.92,0,57.58-9.52,76.26-28.29,18.68-18.77,28.16-43.25,28.16-72.76V142.21h-84.04v293.94Z"/>
  </g>
  <path class="st0" d="M2561.09,174.39c-25.31-25.65-60.68-38.65-105.13-38.65s-81.42,13.04-107.84,38.76c-26.42,25.73-39.91,60.19-40.08,102.42-.17,42.41,13.14,76.57,39.57,101.53,26.41,24.94,61.64,37.59,104.72,37.59s78.27-13.39,105.63-39.8c27.37-26.42,41.25-61.4,41.25-103.98,0-39.3-12.83-72.23-38.12-97.87ZM2498.93,328.86c-9.66,14.11-24.47,21.27-44.01,21.27s-35.93-6.95-46.1-20.65c-10.25-13.8-15.45-31.83-15.45-53.58s5.41-39.76,16.08-53.56c10.6-13.72,25.73-20.67,44.95-20.67s34.68,6.47,44.43,19.24c9.81,12.86,14.79,30.67,14.79,52.92s-4.94,40.79-14.69,55.04Z"/>
  <path class="st0" d="M2928.06,492.18c-26.04-33.58-45.89-69.62-58.99-107.13-13.1-37.51-19.75-77.46-19.75-118.74s6.6-81.66,19.62-119.52c13.02-37.86,32.74-74.51,58.61-108.96l1.33-1.78h-69.02l-.33.4c-27.74,33.08-48.89,69.17-62.85,107.26-13.96,38.09-21.04,79.34-21.04,122.59s7.08,86.4,21.04,124.15c13.97,37.76,35.12,72.47,62.88,103.15l.33.37h69.56l-1.39-1.79Z"/>
  <path class="st0" d="M3190.51,143.85c-13.96-38.18-35.2-74.31-63.11-107.4l-.33-.39h-69.55l1.35,1.78c26.22,34.61,46.15,71.36,59.26,109.21,13.1,37.86,19.75,77.98,19.75,119.26s-6.64,81.49-19.75,118.99c-13.1,37.51-33.04,73.47-59.25,106.87l-1.41,1.8h69.06l.33-.37c28.1-31.03,49.47-65.91,63.52-103.66,14.05-37.75,21.17-79.35,21.17-123.63s-7.08-84.28-21.04-122.46Z"/>
</svg>