<?xml version="1.0" encoding="UTF-8"?>
<svg id="Camada_1" xmlns="http://www.w3.org/2000/svg" version="1.1" viewBox="0 0 3229.49 550.48">
  <!-- Generator: Adobe Illustrator 29.5.1, SVG Export Plug-In . SVG Version: 2.1.0 Build 141)  -->
  <defs>
    <style>
      .st0 {
        fill: #fff;
      }

      .st1 {
        stroke: #000;
        stroke-miterlimit: 10;
      }

      .st2 {
        display: none;
        fill: #0c0c0c;
      }

      .st3 {
        fill: #01cfff;
      }
    </style>
  </defs>
  <rect class="st2" x="2196.03" y="-231.21" width="841.89" height="386.38"/>
  <g>
    <path class="st3" d="M320.63-537.2c-15.6-27.95-38.15-49.64-67.02-64.46-28.67-14.71-63.17-22.17-102.57-22.17H0v22.09l15.73,4.49c5.56,1.8,12.95,6.08,12.95,22.53.36,21.29.55,42.59.55,63.88v150.29c0,21.84-.19,43.22-.55,64.25,0,15.82-7.67,20.05-13.64,21.92l-15.04,5.27v21.82h141.12c40.06,0,75.73-7.44,106.03-22.11,30.52-14.79,54.57-36.54,71.46-64.63,16.85-28.03,25.4-62.47,25.4-102.36s-7.86-73.01-23.38-100.82ZM203.28-289.79c-15.31,9.64-35.67,14.52-60.51,14.52h-22.21c-.32-23.77-.47-47.79-.47-72.04v-177.59c0-23.89.15-47.53.47-70.94h24.42c24.08,0,43.86,4.87,58.81,14.48,14.71,9.47,25.85,25.84,33.1,48.63,7.5,23.56,11.3,56.16,11.3,96.9s-3.8,73.45-11.3,97.19c-7.25,22.95-18.55,39.38-33.6,48.85Z"/>
    <path class="st3" d="M623.59-284.65h-15.33c-11.8,0-16.62-5.13-16.62-17.72v-122.99c0-37.25-9.38-64.71-27.87-81.64-18.35-16.78-44.95-25.28-79.05-25.28-20.34,0-39.57,2.68-57.16,7.98-17.99,5.42-32.66,13.72-43.6,24.66-11.42,11.41-17.2,25.64-17.2,42.29,0,10.87,3.7,19.86,10.99,26.7,7.18,6.76,16.26,10.18,26.99,10.18,11.57,0,21.37-4.05,29.11-12.02,7.59-7.8,12.05-19.91,13.13-35.1l1.76-7.8c1.3-10.78,4.02-18.46,8.08-22.83,3.82-4.1,8.97-6.09,15.74-6.09h1.66c11.54,0,19.65,3.81,24.76,11.62,5.57,8.53,8.4,24.87,8.4,48.57v34.14c-6.43,1.14-12.92,2.21-19.47,3.23-8.35,1.31-15.83,2.73-21.98,4.17-37.66,7.16-65.79,18.66-83.62,34.18-18.38,16.01-27.7,33.95-27.7,53.33,0,24.21,8.07,43.12,23.97,56.2,15.57,12.8,34.76,19.29,57.03,19.29,19.51,0,35.67-4.24,48.03-12.61,9.43-6.39,19.05-14.43,28.7-23.97,3.8,9.31,9.62,17.16,17.4,23.4,10.43,8.38,24.41,12.63,41.54,12.63,14.95,0,27.08-2.58,36.05-7.68,8.73-4.96,16.75-12.05,23.82-21.09l3.11-3.98-10.7-11.78ZM507.4-305.32c-8.55,6.52-15.78,11.27-21.51,14.14-5.75,2.87-11.9,4.33-18.27,4.33-9.03,0-16.18-2.9-21.85-8.89-5.68-5.98-8.56-15.64-8.56-28.69,0-15.42,4.22-27.22,12.9-36.06,8.88-9.04,20.79-15.36,35.35-18.75,7.34-1.63,14.69-3.08,21.94-4.32v78.24Z"/>
    <path class="st3" d="M950.97-271.2c-10.7-2.96-15.47-9.52-15.47-21.25v-153.32c0-28.71-7.17-50.53-21.3-64.87-14.16-14.36-34.44-21.64-60.25-21.64-16.6,0-33.67,3.99-50.76,11.85-13.34,6.14-25.8,13.74-37.19,22.66l-2.86-25.36-10.95-10.02-96.72,34.63v18.83l13.65,3.4c3.75.75,8.56,2.3,10.2,5.44,1.79,3.43,2.86,8.62,3.18,15.16v162.7c0,11.64-4.43,18.41-13.66,21.21l-13.37,3.34v21.16h138.29v-20.94l-9.86-2.96c-10.34-2.94-14.95-9.5-14.95-21.26v-174.7c17.52-13.68,34.41-20.61,50.26-20.61,11.08,0,18.89,2.34,23.2,6.93,4.41,4.71,6.65,12.79,6.65,24.03v163.8c0,11.35-4.48,18.13-13.75,21.23l-12.73,3.39v21.08h138.84v-21.05l-10.46-2.86Z"/>
    <path class="st3" d="M1326.6-272.23c-6.99-2.22-12.01-5.05-14.94-8.43-3.17-3.64-6.14-9.21-8.78-16.47l-112.24-328.35h-54.33l-112.82,326.18c-2.28,6.83-5.26,12.2-8.85,15.95-3.47,3.62-8.6,6.42-15.3,8.33l-19.18,5.68v22.05h96.37v-21.96l-16.08-5.12c-4.11-1.49-9.18-4.05-9.97-7.75-.88-4.09-.19-9.74,2.02-16.68l22.33-65.97h113.23l21.81,66.97c2.19,6.88,2.64,12.56,1.35,16.86-1.04,3.48-4.64,6.23-10.57,8.11l-13.68,4.02v21.51h152.08v-21.63l-12.45-3.31ZM1179.21-392.74h-94.74l48.78-141.17,45.96,141.17Z"/>
    <path class="st3" d="M1579.38-519.39c-8.14-8.55-20.18-12.89-35.78-12.89-10.91,0-21.91,3.04-32.69,9.03-10.4,5.78-20.16,13.38-28.99,22.6-4.39,4.58-8.43,9.4-12.09,14.41l-3.77-36.86-10.97-10.04-97.28,34.61v18.77l13.09,3.48c5.61,1.12,9.29,3.07,10.95,5.78,2.03,3.34,3.22,8.61,3.54,15.37v161.6c0,6.18-1.08,11.04-3.23,14.47-1.9,3.03-5.78,5.3-11.98,6.87l-12.37,4.12v20.79h149.87v-20.94l-21.02-6.31c-5.53-1.45-9.24-3.76-11.36-7.08-2.3-3.58-3.47-8.34-3.47-14.14v-143.37c2.31-5.8,4.88-10.94,7.63-15.31,2.86-4.55,6.01-8.55,9.68-12.25,3.01-3.51,5.79-5.18,8.24-4.85,3.05.37,5.84,2.11,8.88,5.72l.68.64c11.81,14.66,26.18,22.09,42.72,22.09,11.43,0,21.33-3.78,29.44-11.23,8.24-7.59,12.41-18.63,12.41-32.81,0-12.92-4.08-23.77-12.13-32.26Z"/>
    <path class="st3" d="M1860.62-284.65h-15.33c-11.8,0-16.62-5.13-16.62-17.72v-122.99c0-37.25-9.38-64.71-27.87-81.64-18.35-16.78-44.95-25.28-79.05-25.28-20.34,0-39.57,2.68-57.16,7.98-17.99,5.42-32.66,13.72-43.6,24.66-11.42,11.41-17.2,25.64-17.2,42.29,0,10.87,3.7,19.86,10.99,26.7,7.18,6.76,16.26,10.18,26.99,10.18,11.57,0,21.37-4.05,29.11-12.02,7.59-7.8,12.05-19.91,13.13-35.1l1.76-7.8c1.3-10.78,4.02-18.46,8.08-22.83,3.82-4.1,8.97-6.09,15.74-6.09h1.66c11.54,0,19.65,3.81,24.76,11.62,5.57,8.53,8.4,24.87,8.4,48.57v34.14c-6.43,1.14-12.92,2.21-19.47,3.23-8.35,1.31-15.83,2.73-21.98,4.17-37.66,7.16-65.79,18.66-83.62,34.18-18.38,16.01-27.7,33.95-27.7,53.33,0,24.21,8.07,43.12,23.97,56.2,15.57,12.8,34.76,19.29,57.03,19.29,19.51,0,35.67-4.24,48.03-12.61,9.43-6.39,19.05-14.43,28.7-23.97,3.8,9.31,9.62,17.16,17.4,23.4,10.43,8.38,24.41,12.63,41.54,12.63,14.95,0,27.08-2.58,36.05-7.68,8.73-4.96,16.75-12.05,23.82-21.09l3.11-3.98-10.7-11.78ZM1744.43-305.32c-8.55,6.52-15.78,11.27-21.51,14.14-5.75,2.87-11.9,4.33-18.27,4.33-9.03,0-16.18-2.9-21.85-8.89-5.68-5.98-8.56-15.64-8.56-28.69,0-15.42,4.22-27.22,12.9-36.06,8.88-9.04,20.79-15.36,35.35-18.75,7.34-1.63,14.69-3.08,21.94-4.32v78.24Z"/>
    <path class="st3" d="M2154.28-271.68c-5.24-1.66-8.55-3.98-9.83-6.91-1.67-3.79-2.52-9.2-2.52-16.06v-144.37l1.7-80.32-10.16-10.17-100.05,20.97v19.37l10.46,2.85c6.53,1.83,9.19,3.98,10.26,5.46.74,1.02,2.45,4.44,2.45,14.09l-1.62,166.7c-7.84,5.09-15.51,9.01-22.83,11.66-7.94,2.87-17,4.33-26.92,4.33-8.93,0-16.06-2.34-21.8-7.15-5.42-4.54-8.06-11.96-8.06-22.7v-124.98s2.85-80.37,2.85-80.37l-10.16-10.17-102.3,19.75v19.2l11.32,3.74c5.07,1.12,8.49,2.91,10.17,5.3,1.26,1.81,2.77,5.75,2.77,14.14l-1.65,138.4c-.39,21.19,3.1,38.63,10.4,51.82,7.41,13.42,17.72,23.19,30.62,29.04,12.5,5.66,26.51,8.53,41.64,8.53,19.18,0,36.74-3.72,52.2-11.06,11.91-5.65,23.24-12.56,33.8-20.61l4.26,29.78,104.35-6.18v-20.55l-11.36-3.5Z"/>
    <g>
      <path class="st3" d="M2249-550.62c13.61,0,25.36-4.43,34.93-13.15,9.71-8.87,14.64-20.2,14.64-33.66s-4.94-25.28-14.69-33.98c-9.57-8.51-21.3-12.82-34.87-12.82s-25.31,4.31-34.87,12.82c-9.75,8.69-14.69,20.12-14.69,33.98s4.92,24.8,14.64,33.66c9.56,8.73,21.31,13.15,34.93,13.15Z"/>
      <path class="st3" d="M2175.72-498.65v19.2l13.38,2.66c11.81,1.77,17.21,7.99,17.5,19.99v164.35c0,28.63-.19,52.5-.55,71.58-.37,19.07-.91,37.6-1.65,55.57-.35,8.43-1.91,10.74-1.79,11.15-.26-.18-.93-.7-1.75-2l-4.41-8.83c-5.27-10.55-12.43-18.6-21.29-23.96-8.8-5.33-18.66-8.03-29.3-8.03s-20.67,3.55-28.75,10.57c-8.32,7.24-12.54,16.83-12.54,28.52,0,12.87,5.11,23.53,15.19,31.69,9.84,7.94,25.23,11.81,47.06,11.81,15.74,0,31.31-2.92,46.28-8.67,15.04-5.79,29.28-15.33,42.43-28.47,9.65-10.06,17.2-21.33,22.42-33.5,5.16-12.04,8.83-26.78,10.92-43.83,2.04-16.77,3.08-37.8,3.08-62.49v-150.44l1.72-81.31-12.59-9.89-105.35,34.33Z"/>
    </g>
    <path class="st3" d="M2593.1-464.48c-12.45-21.64-29.56-38.54-50.84-50.24-21.2-11.66-45.46-17.56-72.1-17.56s-50.89,5.91-72.11,17.56c-21.3,11.72-38.42,28.73-50.84,50.55-12.42,21.76-18.72,47.99-18.72,77.97s5.9,56.11,17.53,77.83c11.71,21.89,28.46,39.03,49.79,50.94,21.23,11.85,46.24,17.86,74.34,17.86s53.57-5.91,74.61-17.57c21.16-11.74,37.83-28.89,49.54-50.97,11.63-21.93,17.52-48.2,17.52-78.09s-6.3-56.66-18.73-78.28ZM2426.11-460.24c3.57-16.83,8.96-28.54,16.03-34.81,7.01-6.22,16.17-9.24,28.01-9.24s21.13,3.04,28.34,9.29c7.21,6.25,12.58,17.93,15.97,34.7,3.58,17.76,5.4,43.06,5.4,75.2s-1.81,56.8-5.39,74.36c-3.39,16.61-8.76,28.19-15.98,34.45s-16.49,9.29-28.34,9.29-21-3.03-28.01-9.24c-7.07-6.27-12.47-17.9-16.03-34.55-3.76-17.52-5.66-42.51-5.66-74.3s1.91-57.44,5.67-75.15Z"/>
    <path class="st0" d="M2909.15-156.21c-40.45-32.73-71.7-70.14-93.76-112.24-22.06-42.09-33.09-88.15-33.09-138.16s11.03-96.15,33.09-138.43c22.06-42.28,53.31-79.6,93.76-111.96l11.04,9.92c-20.23,27.22-36.13,53.41-47.71,78.59-11.59,25.19-19.77,50.83-24.55,76.94-4.78,26.11-7.17,54.42-7.17,84.93s2.38,58.46,7.17,84.93c4.78,26.47,12.96,52.31,24.55,77.49,11.58,25.19,27.48,51.57,47.71,79.14l-11.04,8.83Z"/>
    <path class="st0" d="M2909.13-148.52l-3.75-3.03c-40.9-33.09-72.96-71.49-95.3-114.12-22.41-42.76-33.77-90.18-33.77-140.94s11.36-98.25,33.77-141.21c22.35-42.83,54.42-81.14,95.33-113.87l3.98-3.17,18.87,16.97-3.25,4.38c-19.88,26.75-35.72,52.83-47.07,77.52-11.32,24.63-19.43,50.03-24.1,75.51-4.69,25.61-7.07,53.82-7.07,83.86s2.38,57.9,7.07,83.87c4.67,25.86,12.77,51.44,24.09,76.05,11.37,24.72,27.21,51,47.1,78.1l3.4,4.64-19.3,15.43ZM2908.95-649.11c-37.71,30.96-67.39,66.89-88.24,106.85-21.5,41.22-32.41,86.86-32.41,135.66s10.9,94.34,32.4,135.37c20.89,39.87,50.65,75.95,88.49,107.31l2.78-2.22c-18.79-26.12-33.89-51.51-44.94-75.53-11.74-25.52-20.16-52.08-25-78.93-4.82-26.67-7.26-55.6-7.26-86s2.44-59.7,7.27-86.02c4.84-26.46,13.25-52.82,25-78.36,11.08-24.08,26.23-49.38,45.1-75.26l-3.19-2.87Z"/>
    <path class="st0" d="M3096.65-656.99c40.45,32.73,71.7,70.13,93.76,112.23,22.06,42.1,33.08,88.16,33.08,138.16s-11.02,96.16-33.08,138.43c-22.06,42.28-53.32,79.6-93.76,111.96l-11.03-9.93c20.22-27.22,36.13-53.41,47.71-78.59,11.59-25.18,19.76-50.83,24.55-76.94,4.77-26.1,7.17-54.41,7.17-84.93s-2.39-58.46-7.17-84.93c-4.78-26.47-12.96-52.3-24.55-77.49-11.58-25.18-27.49-51.57-47.71-79.14l11.03-8.82Z"/>
    <path class="st0" d="M3096.43-148.35l-18.87-16.99,3.25-4.38c19.89-26.77,35.73-52.85,47.07-77.52,11.32-24.59,19.42-50,24.1-75.51,4.69-25.65,7.07-53.86,7.07-83.85s-2.38-57.84-7.07-83.87c-4.67-25.86-12.77-51.44-24.09-76.05-11.36-24.71-27.21-50.99-47.1-78.1l-3.4-4.64,19.28-15.43,3.75,3.03c40.9,33.09,72.97,71.49,95.3,114.11,22.4,42.77,33.77,90.19,33.77,140.94s-11.36,98.27-33.76,141.21c-22.34,42.82-54.42,81.13-95.33,113.87l-3.98,3.18ZM3093.67-166.96l3.18,2.87c37.73-30.98,67.4-66.9,88.24-106.86,21.5-41.2,32.4-86.84,32.4-135.66s-10.9-94.34-32.4-135.37c-20.89-39.87-50.65-75.95-88.49-107.3l-2.77,2.22c18.79,26.13,33.9,51.52,44.94,75.53,11.74,25.52,20.15,52.08,25,78.93,4.82,26.74,7.26,55.67,7.26,86s-2.44,59.65-7.27,86.01c-4.85,26.5-13.27,52.86-25,78.37-11.06,24.07-26.23,49.36-45.1,75.27Z"/>
  </g>
  <g>
    <path class="st3" d="M320.63-1281.71c-15.6-27.95-38.15-49.64-67.02-64.46-28.67-14.71-63.17-22.17-102.57-22.17H0v22.09l15.73,4.49c5.56,1.8,12.95,6.08,12.95,22.53.36,21.29.55,42.59.55,63.88v150.29c0,21.84-.19,43.22-.55,64.25,0,15.82-7.67,20.05-13.64,21.92l-15.04,5.27v21.82h141.12c40.06,0,75.73-7.44,106.03-22.11,30.52-14.79,54.57-36.54,71.46-64.63,16.85-28.03,25.4-62.47,25.4-102.36s-7.86-73.01-23.38-100.82ZM203.28-1034.31c-15.31,9.64-35.67,14.52-60.51,14.52h-22.21c-.32-23.77-.47-47.79-.47-72.04v-177.59c0-23.89.15-47.53.47-70.94h24.42c24.08,0,43.86,4.87,58.81,14.48,14.71,9.47,25.85,25.84,33.1,48.63,7.5,23.56,11.3,56.16,11.3,96.9s-3.8,73.45-11.3,97.19c-7.25,22.95-18.55,39.38-33.6,48.85Z"/>
    <path class="st3" d="M623.59-1029.16h-15.33c-11.8,0-16.62-5.13-16.62-17.72v-122.99c0-37.25-9.38-64.71-27.87-81.64-18.35-16.78-44.95-25.28-79.05-25.28-20.34,0-39.57,2.68-57.16,7.98-17.99,5.42-32.66,13.72-43.6,24.66-11.42,11.41-17.2,25.64-17.2,42.29,0,10.87,3.7,19.86,10.99,26.7,7.18,6.76,16.26,10.18,26.99,10.18,11.57,0,21.37-4.05,29.11-12.02,7.59-7.8,12.05-19.91,13.13-35.1l1.76-7.8c1.3-10.78,4.02-18.46,8.08-22.83,3.82-4.1,8.97-6.09,15.74-6.09h1.66c11.54,0,19.65,3.81,24.76,11.62,5.57,8.53,8.4,24.87,8.4,48.57v34.14c-6.43,1.14-12.92,2.21-19.47,3.23-8.35,1.31-15.83,2.73-21.98,4.17-37.66,7.16-65.79,18.66-83.62,34.18-18.38,16.01-27.7,33.95-27.7,53.33,0,24.21,8.07,43.12,23.97,56.2,15.57,12.8,34.76,19.29,57.03,19.29,19.51,0,35.67-4.24,48.03-12.61,9.43-6.39,19.05-14.43,28.7-23.97,3.8,9.31,9.62,17.16,17.4,23.4,10.43,8.38,24.41,12.63,41.54,12.63,14.95,0,27.08-2.58,36.05-7.68,8.73-4.96,16.75-12.05,23.82-21.09l3.11-3.98-10.7-11.78ZM507.4-1049.83c-8.55,6.52-15.78,11.27-21.51,14.14-5.75,2.87-11.9,4.33-18.27,4.33-9.03,0-16.18-2.9-21.85-8.89-5.68-5.98-8.56-15.64-8.56-28.69,0-15.42,4.22-27.22,12.9-36.06,8.88-9.04,20.79-15.36,35.35-18.75,7.34-1.63,14.69-3.08,21.94-4.32v78.24Z"/>
    <path class="st3" d="M950.97-1015.71c-10.7-2.96-15.47-9.52-15.47-21.25v-153.32c0-28.71-7.17-50.53-21.3-64.87-14.16-14.36-34.44-21.64-60.25-21.64-16.6,0-33.67,3.99-50.76,11.85-13.34,6.14-25.8,13.74-37.19,22.66l-2.86-25.36-10.95-10.02-96.72,34.63v18.83l13.65,3.4c3.75.75,8.56,2.3,10.2,5.44,1.79,3.43,2.86,8.62,3.18,15.16v162.7c0,11.64-4.43,18.41-13.66,21.21l-13.37,3.34v21.16h138.29v-20.94l-9.86-2.96c-10.34-2.94-14.95-9.5-14.95-21.26v-174.7c17.52-13.68,34.41-20.61,50.26-20.61,11.08,0,18.89,2.34,23.2,6.93,4.41,4.71,6.65,12.79,6.65,24.03v163.8c0,11.35-4.48,18.13-13.75,21.23l-12.73,3.39v21.08h138.84v-21.05l-10.46-2.86Z"/>
    <path class="st3" d="M1326.6-1016.74c-6.99-2.22-12.01-5.05-14.94-8.43-3.17-3.64-6.14-9.21-8.78-16.47l-112.24-328.35h-54.33l-112.82,326.18c-2.28,6.83-5.26,12.2-8.85,15.95-3.47,3.62-8.6,6.42-15.3,8.33l-19.18,5.68v22.05h96.37v-21.96l-16.08-5.12c-4.11-1.49-9.18-4.05-9.97-7.75-.88-4.09-.19-9.74,2.02-16.68l22.33-65.97h113.23l21.81,66.97c2.19,6.88,2.64,12.56,1.35,16.86-1.04,3.48-4.64,6.23-10.57,8.11l-13.68,4.02v21.51h152.08v-21.63l-12.45-3.31ZM1179.21-1137.25h-94.74l48.78-141.17,45.96,141.17Z"/>
    <path class="st3" d="M1579.38-1263.9c-8.14-8.55-20.18-12.89-35.78-12.89-10.91,0-21.91,3.04-32.69,9.03-10.4,5.78-20.16,13.38-28.99,22.6-4.39,4.58-8.43,9.4-12.09,14.41l-3.77-36.86-10.97-10.04-97.28,34.61v18.77l13.09,3.48c5.61,1.12,9.29,3.07,10.95,5.78,2.03,3.34,3.22,8.61,3.54,15.37v161.6c0,6.18-1.08,11.04-3.23,14.47-1.9,3.03-5.78,5.3-11.98,6.87l-12.37,4.12v20.79h149.87v-20.94l-21.02-6.31c-5.53-1.45-9.24-3.76-11.36-7.08-2.3-3.58-3.47-8.34-3.47-14.14v-143.37c2.31-5.8,4.88-10.94,7.63-15.31,2.86-4.55,6.01-8.55,9.68-12.25,3.01-3.51,5.79-5.18,8.24-4.85,3.05.37,5.84,2.11,8.88,5.72l.68.64c11.81,14.66,26.18,22.09,42.72,22.09,11.43,0,21.33-3.78,29.44-11.23,8.24-7.59,12.41-18.63,12.41-32.81,0-12.92-4.08-23.77-12.13-32.26Z"/>
    <path class="st3" d="M1860.62-1029.16h-15.33c-11.8,0-16.62-5.13-16.62-17.72v-122.99c0-37.25-9.38-64.71-27.87-81.64-18.35-16.78-44.95-25.28-79.05-25.28-20.34,0-39.57,2.68-57.16,7.98-17.99,5.42-32.66,13.72-43.6,24.66-11.42,11.41-17.2,25.64-17.2,42.29,0,10.87,3.7,19.86,10.99,26.7,7.18,6.76,16.26,10.18,26.99,10.18,11.57,0,21.37-4.05,29.11-12.02,7.59-7.8,12.05-19.91,13.13-35.1l1.76-7.8c1.3-10.78,4.02-18.46,8.08-22.83,3.82-4.1,8.97-6.09,15.74-6.09h1.66c11.54,0,19.65,3.81,24.76,11.62,5.57,8.53,8.4,24.87,8.4,48.57v34.14c-6.43,1.14-12.92,2.21-19.47,3.23-8.35,1.31-15.83,2.73-21.98,4.17-37.66,7.16-65.79,18.66-83.62,34.18-18.38,16.01-27.7,33.95-27.7,53.33,0,24.21,8.07,43.12,23.97,56.2,15.57,12.8,34.76,19.29,57.03,19.29,19.51,0,35.67-4.24,48.03-12.61,9.43-6.39,19.05-14.43,28.7-23.97,3.8,9.31,9.62,17.16,17.4,23.4,10.43,8.38,24.41,12.63,41.54,12.63,14.95,0,27.08-2.58,36.05-7.68,8.73-4.96,16.75-12.05,23.82-21.09l3.11-3.98-10.7-11.78ZM1744.43-1049.83c-8.55,6.52-15.78,11.27-21.51,14.14-5.75,2.87-11.9,4.33-18.27,4.33-9.03,0-16.18-2.9-21.85-8.89-5.68-5.98-8.56-15.64-8.56-28.69,0-15.42,4.22-27.22,12.9-36.06,8.88-9.04,20.79-15.36,35.35-18.75,7.34-1.63,14.69-3.08,21.94-4.32v78.24Z"/>
    <path class="st3" d="M2154.28-1016.19c-5.24-1.66-8.55-3.98-9.83-6.91-1.67-3.79-2.52-9.2-2.52-16.06v-144.37l1.7-80.32-10.16-10.17-100.05,20.97v19.37l10.46,2.85c6.53,1.83,9.19,3.98,10.26,5.46.74,1.02,2.45,4.44,2.45,14.09l-1.62,166.7c-7.84,5.09-15.51,9.01-22.83,11.66-7.94,2.87-17,4.33-26.92,4.33-8.93,0-16.06-2.34-21.8-7.15-5.42-4.54-8.06-11.96-8.06-22.7v-124.98s2.85-80.37,2.85-80.37l-10.16-10.17-102.3,19.75v19.2l11.32,3.74c5.07,1.12,8.49,2.91,10.17,5.3,1.26,1.81,2.77,5.75,2.77,14.14l-1.65,138.4c-.39,21.19,3.1,38.63,10.4,51.82,7.41,13.42,17.72,23.19,30.62,29.04,12.5,5.66,26.51,8.53,41.64,8.53,19.18,0,36.74-3.72,52.2-11.06,11.91-5.65,23.24-12.56,33.8-20.61l4.26,29.78,104.35-6.18v-20.55l-11.36-3.5Z"/>
    <g>
      <path class="st3" d="M2249-1295.13c13.61,0,25.36-4.43,34.93-13.15,9.71-8.87,14.64-20.2,14.64-33.66s-4.94-25.28-14.69-33.98c-9.57-8.51-21.3-12.82-34.87-12.82s-25.31,4.31-34.87,12.82c-9.75,8.69-14.69,20.12-14.69,33.98s4.92,24.8,14.64,33.66c9.56,8.73,21.31,13.15,34.93,13.15Z"/>
      <path class="st3" d="M2175.72-1243.16v19.2l13.38,2.66c11.81,1.77,17.21,7.99,17.5,19.99v164.35c0,28.63-.19,52.5-.55,71.58-.37,19.07-.91,37.6-1.65,55.57-.35,8.43-1.91,10.74-1.79,11.15-.26-.18-.93-.7-1.75-2l-4.41-8.83c-5.27-10.55-12.43-18.6-21.29-23.96-8.8-5.33-18.66-8.03-29.3-8.03s-20.67,3.55-28.75,10.57c-8.32,7.24-12.54,16.83-12.54,28.52,0,12.87,5.11,23.53,15.19,31.69,9.84,7.94,25.23,11.81,47.06,11.81,15.74,0,31.31-2.92,46.28-8.67,15.04-5.79,29.28-15.33,42.43-28.47,9.65-10.06,17.2-21.33,22.42-33.5,5.16-12.04,8.83-26.78,10.92-43.83,2.04-16.77,3.08-37.8,3.08-62.49v-150.44l1.72-81.31-12.59-9.89-105.35,34.33Z"/>
    </g>
    <path class="st3" d="M2593.1-1208.99c-12.45-21.64-29.56-38.54-50.84-50.24-21.2-11.66-45.46-17.56-72.1-17.56s-50.89,5.91-72.11,17.56c-21.3,11.72-38.42,28.73-50.84,50.55-12.42,21.76-18.72,47.99-18.72,77.97s5.9,56.11,17.53,77.83c11.71,21.89,28.46,39.03,49.79,50.94,21.23,11.85,46.24,17.86,74.34,17.86s53.57-5.91,74.61-17.57c21.16-11.74,37.83-28.89,49.54-50.97,11.63-21.93,17.52-48.2,17.52-78.09s-6.3-56.66-18.73-78.28ZM2426.11-1204.75c3.57-16.83,8.96-28.54,16.03-34.81,7.01-6.22,16.17-9.24,28.01-9.24s21.13,3.04,28.34,9.29c7.21,6.25,12.58,17.93,15.97,34.7,3.58,17.76,5.4,43.06,5.4,75.2s-1.81,56.8-5.39,74.36c-3.39,16.61-8.76,28.19-15.98,34.45-7.21,6.25-16.49,9.29-28.34,9.29s-21-3.03-28.01-9.24c-7.07-6.27-12.47-17.9-16.03-34.55-3.76-17.52-5.66-42.51-5.66-74.3s1.91-57.44,5.67-75.15Z"/>
    <path class="st0" d="M2909.15-900.72c-40.45-32.73-71.7-70.14-93.76-112.24-22.06-42.09-33.09-88.15-33.09-138.16s11.03-96.15,33.09-138.43c22.06-42.28,53.31-79.6,93.76-111.96l11.04,9.92c-20.23,27.22-36.13,53.41-47.71,78.59-11.59,25.19-19.77,50.83-24.55,76.94-4.78,26.11-7.17,54.42-7.17,84.93s2.38,58.46,7.17,84.93c4.78,26.47,12.96,52.31,24.55,77.49,11.58,25.19,27.48,51.57,47.71,79.14l-11.04,8.83Z"/>
    <path class="st0" d="M2909.13-893.03l-3.75-3.03c-40.9-33.09-72.96-71.49-95.3-114.12-22.41-42.76-33.77-90.18-33.77-140.94s11.36-98.25,33.77-141.21c22.35-42.83,54.42-81.14,95.33-113.87l3.98-3.17,18.87,16.97-3.25,4.38c-19.88,26.75-35.72,52.83-47.07,77.52-11.32,24.63-19.43,50.03-24.1,75.51-4.69,25.61-7.07,53.82-7.07,83.86s2.38,57.9,7.07,83.87c4.67,25.86,12.77,51.44,24.09,76.05,11.37,24.72,27.21,51,47.1,78.1l3.4,4.64-19.3,15.43ZM2908.95-1393.63c-37.71,30.96-67.39,66.89-88.24,106.85-21.5,41.22-32.41,86.86-32.41,135.66s10.9,94.34,32.4,135.37c20.89,39.87,50.65,75.95,88.49,107.31l2.78-2.22c-18.79-26.12-33.89-51.51-44.94-75.53-11.74-25.52-20.16-52.08-25-78.93-4.82-26.67-7.26-55.6-7.26-86s2.44-59.7,7.27-86.02c4.84-26.46,13.25-52.82,25-78.36,11.08-24.08,26.23-49.38,45.1-75.26l-3.19-2.87Z"/>
    <path class="st0" d="M3096.65-1401.51c40.45,32.73,71.7,70.13,93.76,112.23,22.06,42.1,33.08,88.16,33.08,138.16s-11.02,96.16-33.08,138.43c-22.06,42.28-53.32,79.6-93.76,111.96l-11.03-9.93c20.22-27.22,36.13-53.41,47.71-78.59,11.59-25.18,19.76-50.83,24.55-76.94,4.77-26.1,7.17-54.41,7.17-84.93s-2.39-58.46-7.17-84.93c-4.78-26.47-12.96-52.3-24.55-77.49-11.58-25.18-27.49-51.57-47.71-79.14l11.03-8.82Z"/>
    <path class="st0" d="M3096.43-892.86l-18.87-16.99,3.25-4.38c19.89-26.77,35.73-52.85,47.07-77.52,11.32-24.59,19.42-50,24.1-75.51,4.69-25.65,7.07-53.86,7.07-83.85s-2.38-57.84-7.07-83.87c-4.67-25.86-12.77-51.44-24.09-76.05-11.36-24.71-27.21-50.99-47.1-78.1l-3.4-4.64,19.28-15.43,3.75,3.03c40.9,33.09,72.97,71.49,95.3,114.11,22.4,42.77,33.77,90.19,33.77,140.94s-11.36,98.27-33.76,141.21c-22.34,42.82-54.42,81.13-95.33,113.87l-3.98,3.18ZM3093.67-911.47l3.18,2.87c37.73-30.98,67.4-66.9,88.24-106.86,21.5-41.2,32.4-86.84,32.4-135.66s-10.9-94.34-32.4-135.37c-20.89-39.87-50.65-75.95-88.49-107.3l-2.77,2.22c18.79,26.13,33.9,51.52,44.94,75.53,11.74,25.52,20.15,52.08,25,78.93,4.82,26.74,7.26,55.67,7.26,86s-2.44,59.65-7.27,86.01c-4.85,26.5-13.27,52.86-25,78.37-11.06,24.07-26.23,49.36-45.1,75.27Z"/>
  </g>
  <g>
    <path class="st1" d="M3357.14,387.25V52.77h118.49c59.4,0,103.95,13.57,133.65,40.7,29.7,27.14,44.55,67.92,44.55,122.34s-16.21,93.69-48.63,124.79c-32.42,31.1-75.61,46.65-129.57,46.65h-118.49ZM3432.48,115.28v209.46h37.32c32.66,0,58.27-9.68,76.86-29.04,18.58-19.36,27.87-45.68,27.87-78.96,0-31.56-9.21-56.37-27.64-74.41-18.43-18.04-44.28-27.06-77.56-27.06h-36.85Z"/>
    <path class="st1" d="M3896.18,387.25h-69.74v-26.82h-.93c-8.86,10.89-19.24,19.05-31.14,24.49-11.9,5.44-25.23,8.16-40,8.16-20.22,0-37.71-6.26-52.48-18.78-14.77-12.52-22.16-29.74-22.16-51.66s7.07-39.15,21.23-53.53c14.15-14.38,34.99-23.05,62.51-26.01l63.44-6.76v-7.23c0-11.66-3.7-20.45-11.08-26.36-7.39-5.91-16.6-8.86-27.64-8.86s-20.76,2.57-29.16,7.7c-8.4,5.13-16.02,12.75-22.86,22.86l-49.22-29.39c8.55-13.68,22.24-25.85,41.05-36.5,18.81-10.65,41.05-15.98,66.71-15.98,32.96,0,58.12,8.48,75.46,25.42,17.34,16.95,26.01,42.45,26.01,76.51v142.75ZM3826.9,290.22v-9.1l-47.58,4.67c-11.04,1.25-19.09,4.31-24.14,9.21-5.05,4.9-7.58,11.55-7.58,19.94,0,7.46,2.8,13.64,8.4,18.54s12.67,7.35,21.22,7.35c14.62,0,26.55-4.78,35.8-14.35,9.25-9.56,13.88-21.65,13.88-36.27Z"/>
    <path class="st1" d="M4180.51,387.25h-73.47v-137.15c0-15.24-3.26-27.41-9.8-36.5s-16.25-13.65-29.16-13.65-23.56,4.82-31.96,14.46c-8.4,9.64-12.6,21.85-12.6,36.62v136.22h-73.71v-238.85h73.71v30.32h.93c7.77-10.88,18.58-19.63,32.42-26.24,13.84-6.61,27.76-9.91,41.75-9.91,26.9,0,47.27,8.4,61.11,25.19,13.84,16.79,20.76,40.51,20.76,71.14v148.35Z"/>
    <path class="st1" d="M4209.2,387.25l119.89-334.48h89.33l117.09,334.48h-79.3l-23.09-66.94h-122.69l-22.62,66.94h-78.61ZM4327.69,258.73h87.47l-35.69-116.86c-1.25-4.2-2.41-8.05-3.5-11.54-1.09-3.5-2.18-7.58-3.27-12.25h-1.87c-.93,3.89-1.95,7.7-3.03,11.43-1.09,3.73-2.33,7.78-3.73,12.13l-36.39,117.09Z"/>
    <path class="st1" d="M4720.94,212.78c-5.13-1.71-10.19-2.99-15.16-3.85-4.98-.85-9.88-1.28-14.69-1.28-14.62,0-26.51,5.87-35.69,17.61-9.18,11.74-13.76,27.72-13.76,47.93v114.06h-73.71v-238.85h73.71v42.45h.93c5.75-15.55,13.92-27.21,24.49-34.99,10.57-7.77,23.24-11.66,38.02-11.66,5.75,0,11.23.43,16.44,1.28,5.21.86,10.38,2.3,15.51,4.31l-16.09,62.98Z"/>
    <path class="st1" d="M4965.39,387.25h-69.74v-26.82h-.93c-8.86,10.89-19.24,19.05-31.14,24.49-11.9,5.44-25.23,8.16-40,8.16-20.22,0-37.71-6.26-52.48-18.78-14.78-12.52-22.16-29.74-22.16-51.66s7.07-39.15,21.22-53.53c14.15-14.38,34.99-23.05,62.51-26.01l63.44-6.76v-7.23c0-11.66-3.7-20.45-11.08-26.36-7.39-5.91-16.6-8.86-27.64-8.86s-20.76,2.57-29.16,7.7c-8.4,5.13-16.02,12.75-22.86,22.86l-49.21-29.39c8.55-13.68,22.23-25.85,41.05-36.5,18.81-10.65,41.05-15.98,66.71-15.98,32.96,0,58.12,8.48,75.46,25.42,17.34,16.95,26.01,42.45,26.01,76.51v142.75ZM4896.11,290.22v-9.1l-47.58,4.67c-11.04,1.25-19.09,4.31-24.14,9.21-5.05,4.9-7.58,11.55-7.58,19.94,0,7.46,2.8,13.64,8.4,18.54s12.67,7.35,21.23,7.35c14.61,0,26.55-4.78,35.8-14.35,9.25-9.56,13.88-21.65,13.88-36.27Z"/>
    <path class="st1" d="M5245.99,387.02h-73.71v-30.32h-.93c-7.46,10.89-17.92,19.63-31.37,26.24-13.45,6.61-26.94,9.91-40.47,9.91-27.68,0-48.63-8.4-62.86-25.19-14.23-16.79-21.34-40.5-21.34-71.14v-148.35h73.47v137.15c0,15.24,3.27,27.41,9.8,36.5s16.25,13.64,29.16,13.64,23.56-4.82,31.96-14.46c8.4-9.64,12.6-21.85,12.6-36.62v-136.22h73.71v238.85Z"/>
    <path class="st1" d="M5374.27,409.41c0,26.43-8.36,48.05-25.07,64.84-16.72,16.79-39.38,25.19-67.99,25.19-12.13,0-24.02-1.56-35.69-4.67-11.66-3.11-22.47-8.01-32.42-14.69l32.19-48.52c4.67,3.27,9.37,5.83,14.11,7.7,4.75,1.87,9.84,2.8,15.28,2.8,8.24,0,14.61-2.37,19.13-7.11,4.51-4.75,6.76-12.33,6.76-22.74V148.4h73.71v261ZM5337.42,117.15c-12.75,0-23.17-3.93-31.25-11.78-8.09-7.85-12.13-17.61-12.13-29.27s4.04-22,12.13-29.62c8.08-7.62,18.5-11.43,31.25-11.43s23.36,3.81,31.37,11.43c8.01,7.62,12.01,17.49,12.01,29.62s-4.01,22-12.01,29.62c-8.01,7.62-18.47,11.43-31.37,11.43Z"/>
    <path class="st1" d="M5549.21,393.08c-38.72,0-69.94-11.2-93.65-33.59-23.71-22.39-35.49-52.63-35.34-90.73.15-37.94,12.09-68.46,35.8-91.55,23.71-23.09,55.86-34.64,96.45-34.64s71.29,11.51,94,34.52c22.7,23.02,34.05,52.17,34.05,87.47,0,38.25-12.29,69.24-36.85,92.95-24.57,23.71-56.06,35.57-94.46,35.57ZM5551.54,335.7c18.04,0,31.53-6.53,40.47-19.59,8.94-13.06,13.41-29.78,13.41-50.15s-4.51-36.46-13.53-48.28c-9.02-11.82-22.62-17.73-40.82-17.73s-31.49,6.34-41.29,19.01c-9.8,12.68-14.69,28.96-14.69,48.87s4.7,36.19,14.11,48.87c9.41,12.68,23.52,19.01,42.33,19.01Z"/>
    <path class="st1" d="M5976.99,463.29h-60.18c-25.04-27.68-43.85-58.55-56.45-92.6-12.6-34.05-18.89-71.22-18.89-111.49s6.3-75.73,18.89-110.09c12.59-34.36,31.41-66.48,56.45-96.33h59.71c-23.48,31.26-41.13,64.07-52.95,98.43-11.82,34.37-17.73,70.37-17.73,107.99s5.95,73.24,17.84,107.29c11.9,34.05,29.66,66.32,53.3,96.8Z"/>
    <path class="st1" d="M6156.12,463.29h-59.71c23.79-30.32,41.63-62.51,53.53-96.56,11.9-34.05,17.84-69.89,17.84-107.53s-5.95-73.39-17.84-107.76c-11.89-34.36-29.74-67.25-53.53-98.66h60.18c25.19,29.86,44.08,62.01,56.68,96.45,12.59,34.44,18.89,71.1,18.89,109.98s-6.34,76.97-19.01,111.03c-12.68,34.05-31.69,65.08-57.03,93.07Z"/>
  </g>
  <g>
    <path class="st3" d="M299.69,81.53c-33.03-30.17-83.2-45.47-149.11-45.47H17.95v373.5h132.64c59.91,0,108.56-17.53,144.6-52.09,36.05-34.58,54.33-81.45,54.33-139.32s-16.76-106.42-49.81-136.62ZM103.8,107.67h39.8c36.46,0,65.17,10,85.31,29.72,20.14,19.72,30.35,47.24,30.35,81.8,0,36.47-10.31,65.69-30.63,86.87-20.31,21.16-48.75,31.89-84.51,31.89h-40.32V107.67Z"/>
    <path class="st3" d="M589.31,164.28c-19.38-18.94-47.82-28.54-84.53-28.54-28.54,0-53.64,6.02-74.6,17.88-20.95,11.86-36.42,25.62-45.96,40.9l-.6.96,56.5,33.74.59-.87c7.47-11.03,15.89-19.46,25.03-25.05,9.1-5.56,19.8-8.38,31.79-8.38s22.03,3.23,29.99,9.59c7.88,6.31,11.88,15.87,11.88,28.39v7.03l-69.43,7.4c-30.67,3.29-54.24,13.12-70.06,29.19-15.85,16.11-23.88,36.36-23.88,60.2s8.41,44.15,24.99,58.2c16.52,14,36.37,21.11,58.97,21.11,16.48,0,31.57-3.08,44.87-9.16,12.88-5.89,24.32-14.76,34.03-26.36v29.05h79.64v-159.57c0-37.93-9.83-66.77-29.2-85.72ZM539.4,291.87v8.87c0,15.85-5.08,29.14-15.09,39.49-10.01,10.34-23.11,15.59-38.95,15.59-9.17,0-16.85-2.65-22.83-7.88-5.93-5.19-8.94-11.84-8.94-19.75,0-8.97,2.72-16.15,8.08-21.34,5.4-5.23,14.19-8.57,26.13-9.92l51.6-5.06Z"/>
    <path class="st3" d="M910.84,164.11c-15.51-18.82-38.63-28.37-68.69-28.37-15.63,0-31.38,3.74-46.82,11.11-14.89,7.11-26.8,16.58-35.44,28.15v-32.79h-84.04v267.35h84.04v-152.32c0-16.04,4.61-29.47,13.71-39.92,9.06-10.4,20.71-15.67,34.63-15.67s24.47,4.94,31.46,14.68c7.08,9.86,10.67,23.27,10.67,39.87v153.35h83.78v-165.78c0-34.11-7.84-60.92-23.3-79.68Z"/>
    <path class="st3" d="M1198.17,36.8l-.26-.74h-100.73l-133.88,373.5h89.63l25.11-74.31h134.6l25.63,74.31h90.39l-130.49-372.76ZM1191.99,264.68h-94.09l39.94-128.53c1.53-4.75,2.93-9.29,4.15-13.49,1.14-3.92,2.21-7.91,3.17-11.89h.32c1.14,4.81,2.29,9.12,3.44,12.81,1.19,3.84,2.5,8.15,3.88,12.81l39.18,128.28Z"/>
    <path class="st3" d="M1551.2,143.84c-5.75-2.26-11.62-3.89-17.45-4.85-5.83-.95-12.03-1.44-18.43-1.44-16.56,0-30.98,4.43-42.86,13.16-11.19,8.23-20.08,20.48-26.45,36.44v-44.95h-84.04v267.35h84.04v-127.72c0-22.08,5.06-39.75,15.04-52.52,9.91-12.69,22.95-19.12,38.74-19.12,5.24,0,10.67.47,16.12,1.41,5.45.94,11.06,2.36,16.67,4.23l1.13.38,18.4-72.01-.91-.36Z"/>
    <path class="st3" d="M1776.18,164.28c-19.38-18.94-47.82-28.54-84.53-28.54-28.54,0-53.64,6.02-74.6,17.88-20.95,11.86-36.42,25.62-45.96,40.9l-.6.96,56.5,33.74.59-.87c7.47-11.03,15.89-19.46,25.03-25.05,9.1-5.56,19.8-8.38,31.79-8.38s22.03,3.23,29.99,9.59c7.88,6.31,11.88,15.87,11.88,28.39v7.03l-69.43,7.4c-30.67,3.29-54.24,13.12-70.06,29.19-15.85,16.11-23.88,36.36-23.88,60.2s8.41,44.15,24.99,58.2c16.52,14,36.37,21.11,58.97,21.11,16.48,0,31.57-3.08,44.87-9.16,12.88-5.89,24.32-14.76,34.03-26.36v29.05h79.64v-159.57c0-37.93-9.83-66.77-29.2-85.72ZM1726.27,291.87v8.87c0,15.85-5.08,29.14-15.09,39.49-10.01,10.34-23.11,15.59-38.95,15.59-9.17,0-16.85-2.65-22.83-7.88-5.93-5.19-8.94-11.84-8.94-19.75,0-8.97,2.72-16.15,8.08-21.34,5.4-5.23,14.19-8.57,26.13-9.92l51.6-5.06Z"/>
    <path class="st3" d="M2032.82,141.95v152.32c0,16.05-4.61,29.48-13.71,39.92-9.05,10.4-20.71,15.67-34.63,15.67s-24.47-4.94-31.46-14.68c-7.08-9.86-10.67-23.27-10.67-39.87v-153.35h-83.78v165.78c0,34.12,8.06,60.93,23.95,79.69,15.94,18.82,39.7,28.35,70.62,28.35,15.11,0,30.39-3.74,45.41-11.12,14.45-7.1,25.97-16.54,34.26-28.09v32.73h84.04V141.95h-84.04Z"/>
    <g>
      <path class="st3" d="M2217.24,109.74c14.55,0,26.53-4.37,35.59-12.99,9.08-8.64,13.68-19.97,13.68-33.69s-4.6-25.05-13.68-33.69c-9.07-8.62-21.04-12.99-35.59-12.99s-26.31,4.37-35.46,12.99c-9.16,8.64-13.81,19.97-13.81,33.69s4.64,24.4,13.8,33.29c9.14,8.88,21.08,13.39,35.47,13.39Z"/>
      <path class="st3" d="M2175.22,436.16c0,11.21-2.42,19.45-7.2,24.48-4.77,5.01-11.64,7.55-20.43,7.55-5.87,0-11.44-1.02-16.55-3.03-5.16-2.03-10.35-4.86-15.43-8.42l-.93-.65-36.97,55.72.92.62c11.1,7.45,23.32,12.99,36.32,16.46,12.98,3.46,26.41,5.22,39.9,5.22,31.92,0,57.58-9.52,76.26-28.29,18.68-18.77,28.16-43.25,28.16-72.76V142.21h-84.04v293.94Z"/>
    </g>
    <path class="st3" d="M2561.09,174.39c-25.31-25.65-60.68-38.65-105.13-38.65s-81.42,13.04-107.84,38.76c-26.42,25.73-39.91,60.19-40.08,102.42-.17,42.41,13.14,76.57,39.57,101.53,26.41,24.94,61.64,37.59,104.72,37.59s78.27-13.39,105.63-39.8c27.37-26.42,41.25-61.4,41.25-103.98,0-39.3-12.83-72.23-38.12-97.87ZM2498.93,328.86c-9.66,14.11-24.47,21.27-44.01,21.27s-35.93-6.95-46.1-20.65c-10.25-13.8-15.45-31.83-15.45-53.58s5.41-39.76,16.08-53.56c10.6-13.72,25.73-20.67,44.95-20.67s34.68,6.47,44.43,19.24c9.81,12.86,14.79,30.67,14.79,52.92s-4.94,40.79-14.69,55.04Z"/>
    <path class="st0" d="M2928.06,492.18c-26.04-33.58-45.89-69.62-58.99-107.13-13.1-37.51-19.75-77.46-19.75-118.74s6.6-81.66,19.62-119.52c13.02-37.86,32.74-74.51,58.61-108.96l1.33-1.78h-69.02l-.33.4c-27.74,33.08-48.89,69.17-62.85,107.26-13.96,38.09-21.04,79.34-21.04,122.59s7.08,86.4,21.04,124.15c13.97,37.76,35.12,72.47,62.88,103.15l.33.37h69.56l-1.39-1.79Z"/>
    <path class="st0" d="M3190.51,143.85c-13.96-38.18-35.2-74.31-63.11-107.4l-.33-.39h-69.55l1.35,1.78c26.22,34.61,46.15,71.36,59.26,109.21,13.1,37.86,19.75,77.98,19.75,119.26s-6.64,81.49-19.75,118.99c-13.1,37.51-33.04,73.47-59.25,106.87l-1.41,1.8h69.06l.33-.37c28.1-31.03,49.47-65.91,63.52-103.66,14.05-37.75,21.17-79.35,21.17-123.63s-7.08-84.28-21.04-122.46Z"/>
  </g>
</svg>